<svg xmlns="http://www.w3.org/2000/svg" height="512pt" version="1.1" viewBox="-46 0 512 512.00001" width="512pt">
<g id="surface1">
<path d="M 169.195312 97.289062 L 155.230469 97.289062 C 128.40625 97.289062 106.476562 118.773438 106.34375 145.183594 L 106.34375 175.019531 L 56.894531 142.976562 C 47.464844 136.867188 34.871094 139.558594 28.761719 148.988281 C 22.652344 158.414062 25.34375 171.007812 34.769531 177.117188 L 115.625 229.507812 C 121.878906 233.5625 129.851562 233.871094 136.398438 230.308594 C 142.949219 226.75 147.027344 219.890625 147.027344 212.4375 L 147.027344 145.359375 C 147.066406 141.488281 150.964844 137.972656 155.230469 137.972656 L 169.195312 137.972656 Z M 169.195312 97.289062 " style=" stroke:none;fill-rule:nonzero;fill:rgb(14.509804%,17.647059%,36.078431%);fill-opacity:1;" />
<path d="M 390.671875 148.917969 C 384.5625 139.492188 371.964844 136.800781 362.539062 142.910156 L 313.085938 174.953125 L 313.085938 145.117188 C 312.953125 118.707031 291.023438 97.222656 264.199219 97.222656 L 252.621094 97.222656 L 252.621094 137.902344 L 264.199219 137.902344 C 268.464844 137.902344 272.367188 141.421875 272.40625 145.292969 L 272.40625 212.371094 C 272.40625 219.824219 276.480469 226.679688 283.03125 230.242188 C 289.617188 233.820312 297.585938 233.46875 303.808594 229.441406 L 384.660156 177.050781 C 394.089844 170.941406 396.777344 158.347656 390.671875 148.917969 Z M 390.671875 148.917969 " style=" stroke:none;fill-rule:nonzero;fill:rgb(10.588235%,13.333333%,29.019608%);fill-opacity:1;" />
<path d="M 390.671875 148.917969 C 384.5625 139.492188 371.964844 136.800781 362.539062 142.910156 L 353.3125 148.886719 L 373.628906 184.199219 L 384.660156 177.050781 C 394.089844 170.941406 396.777344 158.347656 390.671875 148.917969 Z M 390.671875 148.917969 " style=" stroke:none;fill-rule:nonzero;fill:rgb(100%,100%,100%);fill-opacity:1;" />
<path d="M 390.671875 148.917969 C 384.5625 139.492188 371.964844 136.800781 362.539062 142.910156 L 384.660156 177.050781 C 394.089844 170.941406 396.777344 158.347656 390.671875 148.917969 Z M 390.671875 148.917969 " style=" stroke:none;fill-rule:nonzero;fill:rgb(100%,71.372549%,61.960784%);fill-opacity:1;" />
<path d="M 64.667969 148.015625 L 56.894531 142.976562 C 47.464844 136.867188 34.871094 139.558594 28.761719 148.988281 C 22.652344 158.414062 25.34375 171.007812 34.769531 177.117188 L 43.492188 182.769531 Z M 64.667969 148.015625 " style=" stroke:none;fill-rule:nonzero;fill:rgb(100%,100%,100%);fill-opacity:1;" />
<path d="M 56.894531 142.976562 C 47.464844 136.867188 34.871094 139.558594 28.761719 148.988281 C 22.652344 158.414062 25.34375 171.007812 34.769531 177.117188 Z M 56.894531 142.976562 " style=" stroke:none;fill-rule:nonzero;fill:rgb(100%,71.372549%,61.960784%);fill-opacity:1;" />
<path d="M 180.609375 512 C 167.128906 512 156.203125 501.074219 156.203125 487.59375 L 156.203125 292.53125 C 156.203125 279.054688 167.128906 268.125 180.609375 268.125 C 194.085938 268.125 205.011719 279.050781 205.011719 292.53125 L 205.011719 487.59375 C 205.011719 501.074219 194.085938 512 180.609375 512 Z M 180.609375 512 " style=" stroke:none;fill-rule:nonzero;fill:rgb(25.490196%,29.411765%,50.980392%);fill-opacity:1;" />
<path d="M 239.519531 512 C 226.042969 512 215.117188 501.074219 215.117188 487.59375 L 215.117188 292.53125 C 215.117188 279.054688 226.039062 268.125 239.519531 268.125 C 253 268.125 263.925781 279.050781 263.925781 292.53125 L 263.925781 487.59375 C 263.925781 501.074219 252.996094 512 239.519531 512 Z M 239.519531 512 " style=" stroke:none;fill-rule:nonzero;fill:rgb(20.392157%,24.313725%,41.960784%);fill-opacity:1;" />
<path d="M 156.203125 97.21875 C 156.203125 228.027344 156.203125 291.300781 156.203125 291.945312 C 156.203125 291.945312 156.203125 291.953125 156.203125 291.984375 L 156.203125 292.53125 L 263.925781 292.53125 L 263.925781 97.21875 Z M 156.203125 97.21875 " style=" stroke:none;fill-rule:nonzero;fill:rgb(10.588235%,13.333333%,29.019608%);fill-opacity:1;" />
<path d="M 156.203125 97.21875 C 156.203125 233.585938 156.203125 291.289062 156.203125 291.945312 C 156.203125 291.945312 156.203125 291.953125 156.203125 291.984375 C 156.203125 292.046875 156.203125 292.195312 156.203125 292.53125 L 210.054688 292.53125 L 210.054688 97.21875 C 203.628906 97.21875 165.285156 97.21875 156.203125 97.21875 Z M 156.203125 97.21875 " style=" stroke:none;fill-rule:nonzero;fill:rgb(14.509804%,17.647059%,36.078431%);fill-opacity:1;" />
<path d="M 241.101562 97.222656 L 210.054688 178.65625 L 179.03125 97.222656 Z M 241.101562 97.222656 " style=" stroke:none;fill-rule:nonzero;fill:rgb(100%,100%,100%);fill-opacity:1;" />
<path d="M 223.535156 124.941406 L 216.640625 112.402344 L 222.582031 101.597656 C 223.660156 99.632812 222.238281 97.21875 219.992188 97.21875 L 200.074219 97.21875 C 197.832031 97.21875 196.40625 99.628906 197.488281 101.597656 L 203.449219 112.441406 L 196.574219 124.941406 C 195.621094 126.675781 195.3125 128.6875 195.699219 130.625 L 199.941406 152.148438 L 210.054688 178.652344 L 220.144531 152.144531 L 224.40625 130.625 C 224.796875 128.6875 224.488281 126.675781 223.535156 124.941406 Z M 223.535156 124.941406 " style=" stroke:none;fill-rule:nonzero;fill:rgb(98.039216%,31.372549%,23.529412%);fill-opacity:1;" />
<path d="M 223.535156 124.941406 L 216.640625 112.402344 L 222.582031 101.597656 C 223.660156 99.632812 222.238281 97.21875 219.992188 97.21875 L 210.054688 97.21875 L 210.054688 178.65625 L 220.140625 152.144531 L 224.40625 130.625 C 224.796875 128.6875 224.488281 126.675781 223.535156 124.941406 Z M 223.535156 124.941406 " style=" stroke:none;fill-rule:nonzero;fill:rgb(87.843137%,19.607843%,11.372549%);fill-opacity:1;" />
<path d="M 251.605469 41.933594 C 251.605469 65.09375 232.832031 83.867188 209.671875 83.867188 C 186.515625 83.867188 167.738281 65.09375 167.738281 41.933594 C 167.738281 18.773438 186.515625 0 209.671875 0 C 232.832031 0 251.605469 18.773438 251.605469 41.933594 Z M 251.605469 41.933594 " style=" stroke:none;fill-rule:nonzero;fill:rgb(100%,71.372549%,61.960784%);fill-opacity:1;" />
<path d="M 156.203125 254.574219 L 190.339844 254.574219 L 190.339844 237.558594 L 156.203125 237.558594 C 156.203125 243.949219 156.203125 249.589844 156.203125 254.574219 Z M 156.203125 254.574219 " style=" stroke:none;fill-rule:nonzero;fill:rgb(10.588235%,13.333333%,29.019608%);fill-opacity:1;" />
<path d="M 228.910156 237.558594 L 263.925781 237.558594 L 263.925781 254.574219 L 228.910156 254.574219 Z M 228.910156 237.558594 " style=" stroke:none;fill-rule:nonzero;fill:rgb(7.843137%,10.196078%,23.137255%);fill-opacity:1;" />
<path d="M 100.9375 263.234375 C 100.9375 291.105469 78.34375 313.703125 50.46875 313.703125 C 22.597656 313.703125 0 291.105469 0 263.234375 C 0 235.359375 22.597656 171.523438 50.46875 171.523438 C 78.34375 171.523438 100.9375 235.359375 100.9375 263.234375 Z M 100.9375 263.234375 " style=" stroke:none;fill-rule:nonzero;fill:rgb(22.352941%,68.235294%,58.823529%);fill-opacity:1;" />
<path d="M 83.363281 245.714844 C 83.363281 263.882812 68.636719 278.613281 50.46875 278.613281 C 32.300781 278.613281 17.574219 263.882812 17.574219 245.714844 C 17.574219 227.546875 32.300781 212.820312 50.46875 212.820312 C 68.636719 212.820312 83.363281 227.546875 83.363281 245.714844 Z M 83.363281 245.714844 " style=" stroke:none;fill-rule:nonzero;fill:rgb(42.745098%,78.039216%,70.980392%);fill-opacity:1;" />
<path d="M 50.46875 200.457031 L 24.066406 132.78125 C 23.265625 130.730469 23.527344 128.414062 24.773438 126.59375 C 26.015625 124.777344 28.074219 123.6875 30.277344 123.6875 L 70.660156 123.6875 C 72.863281 123.6875 74.921875 124.777344 76.164062 126.59375 C 77.40625 128.414062 77.671875 130.730469 76.871094 132.78125 Z M 50.46875 200.457031 " style=" stroke:none;fill-rule:nonzero;fill:rgb(22.352941%,68.235294%,58.823529%);fill-opacity:1;" />
<path d="M 48.070312 263.300781 C 42.179688 263.101562 37.363281 260.058594 37.363281 256.914062 C 37.363281 255.246094 38.835938 252.789062 40.703125 252.789062 C 42.765625 252.789062 44.4375 255.6875 48.070312 256.324219 L 48.070312 248.367188 C 43.554688 246.648438 38.25 244.535156 38.25 238.25 C 38.25 232.011719 42.867188 229.015625 48.070312 228.277344 L 48.070312 226.902344 C 48.070312 226.214844 48.859375 225.578125 49.9375 225.578125 C 50.871094 225.578125 51.804688 226.214844 51.804688 226.902344 L 51.804688 228.132812 C 54.851562 228.230469 60.597656 229.015625 60.597656 232.40625 C 60.597656 233.730469 59.714844 236.433594 57.550781 236.433594 C 55.929688 236.433594 54.996094 234.859375 51.804688 234.617188 L 51.804688 241.785156 C 56.277344 243.457031 61.480469 245.765625 61.480469 252.394531 C 61.480469 258.488281 57.550781 262.171875 51.804688 263.105469 L 51.804688 264.527344 C 51.804688 265.214844 50.871094 265.855469 49.9375 265.855469 C 48.859375 265.855469 48.070312 265.214844 48.070312 264.527344 Z M 48.5625 240.609375 L 48.5625 234.761719 C 46.351562 235.203125 45.417969 236.335938 45.417969 237.511719 C 45.417969 238.9375 46.695312 239.820312 48.5625 240.609375 Z M 51.3125 249.695312 L 51.3125 256.277344 C 52.984375 255.882812 54.308594 254.953125 54.308594 253.183594 C 54.308594 251.5625 53.082031 250.53125 51.3125 249.695312 Z M 51.3125 249.695312 " style=" stroke:none;fill-rule:nonzero;fill:rgb(15.294118%,47.058824%,40.392157%);fill-opacity:1;" />
<path d="M 319.1875 262.75 C 319.1875 290.625 341.785156 313.21875 369.660156 313.21875 C 397.53125 313.21875 420.128906 290.625 420.128906 262.75 C 420.128906 234.878906 397.53125 171.039062 369.660156 171.039062 C 341.785156 171.039062 319.1875 234.878906 319.1875 262.75 Z M 319.1875 262.75 " style=" stroke:none;fill-rule:nonzero;fill:rgb(22.352941%,68.235294%,58.823529%);fill-opacity:1;" />
<path d="M 369.65625 199.972656 L 396.0625 132.300781 C 396.859375 130.246094 396.597656 127.929688 395.355469 126.113281 C 394.113281 124.292969 392.050781 123.207031 389.847656 123.207031 L 349.46875 123.207031 C 347.265625 123.207031 345.203125 124.292969 343.960938 126.113281 C 342.71875 127.929688 342.453125 130.246094 343.253906 132.300781 Z M 369.65625 199.972656 " style=" stroke:none;fill-rule:nonzero;fill:rgb(22.352941%,68.235294%,58.823529%);fill-opacity:1;" />
<path d="M 402.554688 246.019531 C 402.554688 264.1875 387.824219 278.914062 369.65625 278.914062 C 351.488281 278.914062 336.761719 264.1875 336.761719 246.019531 C 336.761719 227.851562 351.488281 213.125 369.65625 213.125 C 387.824219 213.125 402.554688 227.851562 402.554688 246.019531 Z M 402.554688 246.019531 " style=" stroke:none;fill-rule:nonzero;fill:rgb(42.745098%,78.039216%,70.980392%);fill-opacity:1;" />
<path d="M 367.6875 263.527344 C 361.558594 263.320312 356.550781 260.152344 356.550781 256.882812 C 356.550781 255.148438 358.082031 252.59375 360.023438 252.59375 C 362.171875 252.59375 363.90625 255.605469 367.6875 256.269531 L 367.6875 247.996094 C 362.988281 246.207031 357.46875 244.007812 357.46875 237.46875 C 357.46875 230.980469 362.273438 227.863281 367.6875 227.097656 L 367.6875 225.664062 C 367.6875 224.949219 368.503906 224.285156 369.628906 224.285156 C 370.601562 224.285156 371.570312 224.949219 371.570312 225.664062 L 371.570312 226.945312 C 374.738281 227.046875 380.71875 227.863281 380.71875 231.386719 C 380.71875 232.769531 379.796875 235.578125 377.550781 235.578125 C 375.863281 235.578125 374.894531 233.945312 371.574219 233.6875 L 371.574219 241.148438 C 376.222656 242.886719 381.636719 245.285156 381.636719 252.183594 C 381.636719 258.519531 377.550781 262.351562 371.574219 263.324219 L 371.574219 264.804688 C 371.574219 265.519531 370.601562 266.183594 369.632812 266.183594 C 368.507812 266.183594 367.6875 265.519531 367.6875 264.804688 Z M 368.199219 239.921875 L 368.199219 233.839844 C 365.902344 234.300781 364.929688 235.476562 364.929688 236.703125 C 364.929688 238.183594 366.257812 239.105469 368.199219 239.921875 Z M 371.0625 249.375 L 371.0625 256.21875 C 372.796875 255.8125 374.175781 254.839844 374.175781 253 C 374.175781 251.316406 372.902344 250.242188 371.0625 249.375 Z M 371.0625 249.375 " style=" stroke:none;fill-rule:nonzero;fill:rgb(15.294118%,47.058824%,40.392157%);fill-opacity:1;" />
</g>
</svg>